<svg xmlns="http://www.w3.org/2000/svg"  viewBox="0 0 50 50" width="50px" height="50px"><path d="M 44.527344 34.75 C 43.449219 37.144531 42.929688 38.214844 41.542969 40.328125 C 39.601563 43.28125 36.863281 46.96875 33.480469 46.992188 C 30.46875 47.019531 29.691406 45.027344 25.601563 45.0625 C 21.515625 45.082031 20.664063 47.03125 17.648438 47 C 14.261719 46.96875 11.671875 43.648438 9.730469 40.699219 C 4.300781 32.429688 3.726563 22.734375 7.082031 17.578125 C 9.457031 13.921875 13.210938 11.773438 16.738281 11.773438 C 20.332031 11.773438 22.589844 13.746094 25.558594 13.746094 C 28.441406 13.746094 30.195313 11.769531 34.351563 11.769531 C 37.492188 11.769531 40.8125 13.480469 43.1875 16.433594 C 35.421875 20.691406 36.683594 31.78125 44.527344 34.75 Z M 31.195313 8.46875 C 32.707031 6.527344 33.855469 3.789063 33.4375 1 C 30.972656 1.167969 28.089844 2.742188 26.40625 4.78125 C 24.878906 6.640625 23.613281 9.398438 24.105469 12.066406 C 26.796875 12.152344 29.582031 10.546875 31.195313 8.46875 Z"/></svg>
<svg height="44" viewBox="0 0 14 44" width="14" xmlns="http://www.w3.org/2000/svg">
                <path d="m13.0729 17.6825a3.61 3.61 0 0 0 -1.7248 3.0365 3.5132 3.5132 0 0 0 2.1379 3.2223 8.394 8.394 0 0 1 -1.0948 2.2618c-.6816.9812-1.3943 1.9623-2.4787 1.9623s-1.3633-.63-2.613-.63c-1.2187 0-1.6525.6507-2.644.6507s-1.6834-.9089-2.4787-2.0243a9.7842 9.7842 0 0 1 -1.6628-5.2776c0-3.0984 2.014-4.7405 3.9969-4.7405 1.0535 0 1.9314.6919 2.5924.6919.63 0 1.6112-.7333 2.8092-.7333a3.7579 3.7579 0 0 1 3.1604 1.5802zm-3.7284-2.8918a3.5615 3.5615 0 0 0 .8469-2.22 1.5353 1.5353 0 0 0 -.031-.32 3.5686 3.5686 0 0 0 -2.3445 1.2084 3.4629 3.4629 0 0 0 -.8779 2.1585 1.419 1.419 0 0 0 .031.2892 1.19 1.19 0 0 0 .2169.0207 3.0935 3.0935 0 0 0 2.1586-1.1368z"></path></svg>